<svg xmlns="http://www.w3.org/2000/svg" viewBox="-11.1 -24.2 213.1 212.2">
<path d="M48.0,88.5 L12.9,75.0 L29.6,100.0 L12.9,125.0 L48.0,111.5" fill="none" stroke="#1b2a3a" stroke-width="8.00" stroke-linecap="round" stroke-linejoin="round"/>
<circle cx="114" cy="100" r="64" fill="none" stroke="#1b2a3a" stroke-width="8.00"/>
<circle cx="106.3" cy="98.7" r="10.2" fill="#0d1117"/>
<circle cx="126.8" cy="114.1" r="6.1" fill="#0d1117"/>
<circle cx="92.2" cy="116.6" r="5.4" fill="#0d1117"/>
<circle cx="115.3" cy="80.8" r="4.8" fill="#0d1117"/>
<circle cx="84.6" cy="93.6" r="3.8" fill="#0d1117"/>
<circle cx="135.8" cy="97.4" r="3.3" fill="#0d1117"/>
<circle cx="102.5" cy="132.0" r="3.2" fill="#0d1117"/>
<circle cx="128.1" cy="129.4" r="2.9" fill="#0d1117"/>
<circle cx="111.4" cy="114.1" r="2.9" fill="#0d1117"/>
<circle cx="139.6" cy="119.2" r="2.6" fill="#0d1117"/>
<circle cx="94.8" cy="80.8" r="3.2" fill="#0d1117"/>
<circle cx="120.4" cy="92.3" r="2.9" fill="#0d1117"/>
<circle cx="143.4" cy="106.4" r="2.4" fill="#0d1117"/>
<circle cx="146.0" cy="77.0" r="7.2" fill="#0d1117"/>
<path d="M93.5,25.1 L94.3,23.3 L95.1,21.4 L95.7,19.6 L96.1,17.7 L96.2,15.9 L96.1,14.0 L95.9,12.2 L95.5,10.3 L95.0,8.5 L94.5,6.6 L94.0,4.8 L93.8,2.9 L93.7,1.1 L93.9,-0.8 L94.3,-2.6 L94.8,-4.5 L95.6,-6.3 L96.4,-8.2" fill="none" stroke="#7e8d99" stroke-width="4.80" stroke-linecap="round" stroke-linejoin="round"/>
<path d="M114.0,25.1 L114.8,23.3 L115.6,21.4 L116.1,19.6 L116.5,17.7 L116.7,15.9 L116.6,14.0 L116.4,12.2 L115.9,10.3 L115.4,8.5 L114.9,6.6 L114.5,4.8 L114.3,2.9 L114.2,1.1 L114.3,-0.8 L114.7,-2.6 L115.3,-4.5 L116.1,-6.3 L116.9,-8.2" fill="none" stroke="#7e8d99" stroke-width="4.80" stroke-linecap="round" stroke-linejoin="round"/>
<path d="M134.5,25.1 L135.3,23.3 L136.0,21.4 L136.6,19.6 L137.0,17.7 L137.2,15.9 L137.1,14.0 L136.8,12.2 L136.4,10.3 L135.9,8.5 L135.4,6.6 L135.0,4.8 L134.7,2.9 L134.7,1.1 L134.8,-0.8 L135.2,-2.6 L135.8,-4.5 L136.5,-6.3 L137.4,-8.2" fill="none" stroke="#7e8d99" stroke-width="4.80" stroke-linecap="round" stroke-linejoin="round"/>
</svg>
